<svg width="115" height="60" viewBox="0 0 115 60" fill="none" xmlns="http://www.w3.org/2000/svg">
<path d="M48.8492 46.7659C48.7716 46.9071 48.719 47.0659 48.6915 47.2424H51.5039C51.4771 47.0629 51.4237 46.9005 51.3439 46.7553C51.2235 46.5365 51.0572 46.3671 50.8449 46.2471C50.6326 46.12 50.3849 46.0565 50.1019 46.0565C49.8188 46.0565 49.5675 46.12 49.3482 46.2471C49.1359 46.3671 48.9695 46.54 48.8492 46.7659Z" fill="#180022"/>
<path d="M57.9876 49.1271C57.7753 49.2541 57.5311 49.3176 57.2551 49.3176C56.9791 49.3176 56.7314 49.2541 56.5121 49.1271C56.2927 49 56.1193 48.82 55.9919 48.5871C55.8645 48.3471 55.8008 48.0647 55.8008 47.74C55.8008 47.4082 55.8645 47.1259 55.9919 46.8929C56.1193 46.66 56.2927 46.48 56.5121 46.3529C56.7314 46.2259 56.9791 46.1624 57.2551 46.1624C57.5311 46.1624 57.7753 46.2259 57.9876 46.3529C58.207 46.48 58.3804 46.66 58.5077 46.8929C58.6422 47.1259 58.7094 47.4082 58.7094 47.74C58.7094 48.0647 58.6422 48.3471 58.5077 48.5871C58.3804 48.82 58.207 49 57.9876 49.1271Z" fill="#180022"/>
<path fill-rule="evenodd" clip-rule="evenodd" d="M10.3205 0C4.62065 0 0 4.60883 0 10.2941V49.7059C0 55.3912 4.62065 60 10.3205 60H104.679C106.128 60 107.507 59.7023 108.758 59.1649C105.034 53.5045 101.295 46.6108 98.2748 35.8908C97.0834 31.6616 96.1705 28.153 95.4107 25.233L95.4105 25.2319L95.4103 25.2315C94.5366 21.8735 93.8654 19.2941 93.2064 17.2925C92.5952 15.4364 92.101 14.4467 91.6774 13.9333C91.3862 13.5805 91.2117 13.5232 90.8655 13.5302C90.5867 13.5359 89.939 13.6872 89.1834 15.8033C88.4877 17.7514 88.0629 20.402 87.5887 23.3614L87.5886 23.3618L87.5676 23.4927C87.1082 26.3588 86.5943 29.5362 85.649 31.9896C84.7335 34.3658 83.0011 37.0601 79.6154 37.0601C76.2843 37.0601 74.559 34.3207 73.6305 31.9933C72.6524 29.5417 72.0656 26.365 71.5419 23.4829L71.4964 23.2328C70.9662 20.313 70.4895 17.6886 69.7834 15.7569C69.4225 14.7695 69.067 14.1573 68.7597 13.8203C68.506 13.5423 68.3707 13.5307 68.2628 13.5307C68.1206 13.5307 67.9737 13.5563 67.7237 13.8279C67.4178 14.1601 67.0648 14.7657 66.7111 15.7473C65.9993 17.7229 65.5451 20.437 65.0448 23.45L65.0338 23.5159C64.5595 26.3727 64.0378 29.5147 63.1441 31.939C62.3043 34.217 60.6784 37.0601 57.3526 37.0601C55.7663 37.0601 54.5051 36.3377 53.5827 35.3324C52.713 34.3845 52.1116 33.1602 51.6608 31.9409C50.7943 29.597 50.2447 26.5688 49.7386 23.7808L49.6845 23.4828C49.1386 20.4789 48.628 17.7652 47.8665 15.7945C47.0414 13.659 46.3824 13.5307 46.1475 13.5307C46.0475 13.5307 45.9381 13.5345 45.7148 13.7889C45.4314 14.1118 45.1002 14.7117 44.7686 15.7009C44.1688 17.4901 43.7794 19.8562 43.3407 22.5218L43.3391 22.531C43.2893 22.8337 43.2389 23.1401 43.1874 23.4501C42.7069 26.3439 42.1343 29.552 41.0705 32.0424C40.0094 34.5267 38.0996 37.0601 34.6474 37.0601C31.6571 37.0601 29.9413 34.884 28.9651 32.7906C27.9825 30.6835 27.3827 27.9398 26.8771 25.3275C26.7539 24.6906 26.6356 24.0581 26.5187 23.4329C26.1351 21.3811 25.7664 19.4086 25.2843 17.6219C24.6382 15.2271 23.9103 13.6875 23.1047 12.9298C22.216 12.094 22.1748 10.6979 23.0127 9.81155C23.8506 8.92514 25.2503 8.88408 26.1389 9.71983C27.9134 11.3886 28.8884 14.0034 29.5554 16.4754C30.0873 18.4468 30.5002 20.6576 30.8894 22.7416L30.8902 22.7456C31.0013 23.3407 31.1105 23.9254 31.22 24.4913C31.7354 27.1546 32.2543 29.3834 32.9755 30.9298C33.7031 32.4899 34.2762 32.6483 34.6474 32.6483C35.3972 32.6483 36.1781 32.2406 37.0014 30.3132C37.822 28.3919 38.3276 25.7177 38.8238 22.7292C38.8757 22.4166 38.9276 22.1001 38.9798 21.7809C39.4024 19.2014 39.8526 16.4532 40.5738 14.3019C40.9817 13.0852 41.5408 11.8469 42.3868 10.8829C43.2929 9.85053 44.5519 9.11899 46.1473 9.11893C49.4509 9.11879 51.1141 11.9315 51.9937 14.2078C52.9369 16.6488 53.5136 19.8175 54.0367 22.696L54.0431 22.7312C54.5881 25.7309 55.0801 28.4381 55.8107 30.4145C56.1755 31.4012 56.5347 32.015 56.8456 32.3539C57.1039 32.6354 57.2433 32.6483 57.3526 32.6483C57.5652 32.6483 58.2061 32.5503 58.9928 30.4165C59.7185 28.4477 60.1817 25.7371 60.6812 22.7291L60.7178 22.5085C61.1841 19.6982 61.6934 16.6291 62.5487 14.2553C62.9898 13.031 63.5871 11.7983 64.4659 10.8438C65.4005 9.82859 66.6727 9.11893 68.2628 9.11893C69.8504 9.11893 71.1112 9.84262 72.0313 10.8513C72.8977 11.8012 73.4936 13.0272 73.9389 14.2457C74.7789 16.5438 75.3155 19.5046 75.8121 22.2443L75.894 22.6961C76.4392 25.6964 76.9582 28.402 77.7401 30.3622C78.5717 32.4465 79.2606 32.6483 79.6154 32.6483C80.063 32.6483 80.7449 32.4198 81.5203 30.4071C82.2659 28.4717 82.7195 25.7942 83.2 22.7963C83.2201 22.671 83.2402 22.5451 83.2604 22.4187C83.7005 19.6672 84.1808 16.664 85.0167 14.323C85.8414 12.0136 87.4422 9.18704 90.7755 9.11938C92.5295 9.08379 93.9763 9.77695 95.0926 11.1298C96.0764 12.3221 96.7756 13.9934 97.4086 15.9159C98.0939 17.997 98.827 20.8073 99.7498 24.3446C100.519 27.2914 101.419 30.7428 102.533 34.6974C105.367 44.7571 108.83 51.2108 112.354 56.589C113.999 54.7653 115 52.3522 115 49.7059V10.2941C115 4.60883 110.379 0 104.679 0H10.3205ZM10.2498 36.5211L10.2587 36.5304L10.268 36.5393C10.8367 37.0779 11.5232 37.3529 12.3041 37.3529H24.0212C24.6207 37.3529 25.1459 37.1437 25.5664 36.7264C26.0129 36.309 26.2436 35.7802 26.2436 35.1693C26.2436 34.5613 26.0151 34.0347 25.5728 33.6182C25.1562 33.176 24.6294 32.9476 24.0212 32.9476H13.8427V11.9275C13.8427 11.3195 13.6142 10.7929 13.1719 10.3764C12.7553 9.93426 12.2285 9.70588 11.6203 9.70588C11.0091 9.70588 10.4802 9.93647 10.0626 10.3828C9.6452 10.8032 9.4359 11.3283 9.4359 11.9275V34.4857C9.4359 35.2663 9.71103 35.9526 10.2498 36.5211ZM9.72723 50.5882V43.1765H11.4469V49.1906H15.1729V50.5882H9.72723ZM15.4742 52.5894C15.7644 52.6812 16.0581 52.7271 16.3553 52.7271C16.7021 52.7271 17.017 52.6741 17.3001 52.5682C17.5902 52.4624 17.8521 52.2788 18.0856 52.0177C18.3262 51.7565 18.5385 51.3965 18.7225 50.9376L21.3021 44.8918H19.7098L18.0965 48.7605L16.4933 44.8918H14.7842L17.2567 50.6358L17.2364 50.6835C17.1231 50.9376 16.9958 51.1176 16.8542 51.2235C16.7198 51.3365 16.5358 51.3929 16.3022 51.3929C16.1394 51.3929 15.9731 51.3612 15.8033 51.2976C15.6405 51.2341 15.4954 51.1459 15.3681 51.0329L14.763 52.2082C14.947 52.3706 15.1841 52.4977 15.4742 52.5894ZM21.9778 50.5882V44.8918H23.5595V45.6397C23.7155 45.4275 23.9137 45.2558 24.154 45.1247C24.529 44.9129 24.9855 44.8071 25.5233 44.8071V46.3318C25.4526 46.3247 25.3889 46.3212 25.3323 46.3212C25.2756 46.3141 25.2155 46.3106 25.1518 46.3106C24.6989 46.3106 24.3309 46.4412 24.0478 46.7024C23.7718 46.9565 23.6338 47.3553 23.6338 47.8988V50.5882H21.9778ZM26.5184 44.8918V50.5882H28.1744V44.8918H26.5184ZM26.6033 43.8329C26.7944 44.0094 27.0421 44.0977 27.3464 44.0977C27.6578 44.0977 27.9054 44.0094 28.0894 43.8329C28.2805 43.6494 28.3761 43.42 28.3761 43.1447C28.3761 42.8835 28.2805 42.6718 28.0894 42.5094C27.8984 42.34 27.6507 42.2553 27.3464 42.2553C27.0421 42.2553 26.7944 42.3435 26.6033 42.52C26.4122 42.6965 26.3167 42.9153 26.3167 43.1765C26.3167 43.4376 26.4122 43.6565 26.6033 43.8329ZM32.4713 50.6729C31.8556 50.6729 31.3071 50.5494 30.8259 50.3024C30.3447 50.0482 29.966 49.6988 29.69 49.2541C29.4211 48.8094 29.2867 48.3047 29.2867 47.74C29.2867 47.1682 29.4211 46.6635 29.69 46.2259C29.966 45.7812 30.3447 45.4353 30.8259 45.1882C31.3071 44.9341 31.8556 44.8071 32.4713 44.8071C33.0728 44.8071 33.5965 44.9341 34.0424 45.1882C34.4882 45.4353 34.8173 45.7918 35.0296 46.2576L33.7451 46.9459C33.5965 46.6776 33.409 46.48 33.1825 46.3529C32.9631 46.2259 32.7225 46.1624 32.4607 46.1624C32.1776 46.1624 31.9228 46.2259 31.6964 46.3529C31.4699 46.48 31.2894 46.66 31.155 46.8929C31.0276 47.1259 30.9639 47.4082 30.9639 47.74C30.9639 48.0718 31.0276 48.3541 31.155 48.5871C31.2894 48.82 31.4699 49 31.6964 49.1271C31.9228 49.2541 32.1776 49.3176 32.4607 49.3176C32.7225 49.3176 32.9631 49.2576 33.1825 49.1376C33.409 49.0106 33.5965 48.8094 33.7451 48.5341L35.0296 49.2329C34.8173 49.6918 34.4882 50.0482 34.0424 50.3024C33.5965 50.5494 33.0728 50.6729 32.4713 50.6729ZM35.1724 43.1765L37.6033 50.5882H39.4504L41.1348 45.5663L42.773 50.5882H44.6201L47.051 43.1765H45.4056L43.6743 48.425L41.9769 43.1765H40.3845L38.6323 48.3863L36.9558 43.1765H35.1724ZM50.3035 50.6729C49.6525 50.6729 49.0792 50.5459 48.5839 50.2918C48.0955 50.0377 47.7169 49.6918 47.448 49.2541C47.1791 48.8094 47.0446 48.3047 47.0446 47.74C47.0446 47.1682 47.1755 46.6635 47.4374 46.2259C47.7063 45.7812 48.0708 45.4353 48.5308 45.1882C48.9908 44.9341 49.5109 44.8071 50.0912 44.8071C50.6503 44.8071 51.1528 44.9271 51.5986 45.1671C52.0515 45.4 52.4089 45.7388 52.6708 46.1835C52.9326 46.6212 53.0635 47.1471 53.0635 47.7612C53.0635 47.8247 53.06 47.8988 53.0529 47.9835C53.0495 48.0206 53.0462 48.0569 53.0428 48.0923L53.0381 48.1413C53.036 48.1631 53.0338 48.1847 53.0317 48.2059H48.7106C48.744 48.3575 48.7972 48.4987 48.8705 48.6294C49.012 48.8624 49.2066 49.0424 49.4543 49.1694C49.7091 49.2894 50.0063 49.3494 50.346 49.3494C50.6503 49.3494 50.9157 49.3035 51.1422 49.2118C51.3757 49.12 51.588 48.9824 51.7791 48.7988L52.6602 49.7518C52.3983 50.0482 52.0692 50.2776 51.6729 50.44C51.2766 50.5953 50.8202 50.6729 50.3035 50.6729ZM56.2467 50.3553C56.6076 50.5671 57.0393 50.6729 57.5417 50.6729C58.0796 50.6729 58.5608 50.5529 58.9854 50.3129C59.4171 50.0659 59.7568 49.7235 60.0045 49.2859C60.2593 48.8482 60.3867 48.3329 60.3867 47.74C60.3867 47.14 60.2593 46.6212 60.0045 46.1835C59.7568 45.7459 59.4171 45.4071 58.9854 45.1671C58.5608 44.9271 58.0796 44.8071 57.5417 44.8071C57.0605 44.8071 56.6394 44.9129 56.2785 45.1247C56.1092 45.224 55.9571 45.3474 55.8221 45.4949V42.7318H54.166V50.5882H55.7477V49.9305C55.8906 50.1023 56.0569 50.2439 56.2467 50.3553ZM64.6183 50.5882V43.1765H66.0408L68.8241 47.7787L71.5608 43.1765H72.9726L72.9939 50.5882H71.3803L71.3708 46.1397L69.1829 49.8047H68.408L66.2318 46.2355V50.5882H64.6183ZM75.7759 50.3977C76.151 50.5812 76.5756 50.6729 77.0498 50.6729C77.4885 50.6729 77.8919 50.5741 78.2599 50.3765C78.4788 50.257 78.6663 50.1051 78.8225 49.9208V50.5882H80.3936V44.8918H78.7376V47.7082C78.7376 48.0541 78.681 48.3435 78.5677 48.5765C78.4545 48.8024 78.2988 48.9718 78.1007 49.0847C77.9025 49.1906 77.6761 49.2435 77.4213 49.2435C77.0533 49.2435 76.7667 49.1341 76.5614 48.9153C76.3633 48.6894 76.2642 48.34 76.2642 47.8671V44.8918H74.6082V48.1106C74.6082 48.6965 74.7108 49.18 74.9161 49.5612C75.1213 49.9353 75.4079 50.2141 75.7759 50.3977ZM83.8492 50.6729C83.3608 50.6729 82.8902 50.6165 82.4373 50.5035C81.9915 50.3835 81.6376 50.2353 81.3758 50.0588L81.9278 48.8729C82.1896 49.0353 82.4975 49.1694 82.8513 49.2753C83.2122 49.3741 83.5661 49.4235 83.9128 49.4235C84.295 49.4235 84.5639 49.3777 84.7196 49.2859C84.8824 49.1941 84.9638 49.0671 84.9638 48.9047C84.9638 48.7706 84.9001 48.6718 84.7727 48.6082C84.6524 48.5376 84.4896 48.4847 84.2844 48.4494C84.0792 48.4141 83.8527 48.3788 83.605 48.3435C83.3644 48.3082 83.1202 48.2624 82.8726 48.2059C82.6248 48.1424 82.3984 48.0506 82.1932 47.9306C81.9879 47.8106 81.8216 47.6482 81.6942 47.4435C81.5739 47.2388 81.5138 46.9741 81.5138 46.6494C81.5138 46.2894 81.6164 45.9718 81.8216 45.6965C82.0339 45.4212 82.3382 45.2059 82.7345 45.0506C83.1309 44.8882 83.605 44.8071 84.157 44.8071C84.5462 44.8071 84.9425 44.8494 85.3459 44.9341C85.7493 45.0188 86.0855 45.1424 86.3544 45.3047L85.8024 46.48C85.5264 46.3176 85.2468 46.2082 84.9638 46.1518C84.6878 46.0882 84.4188 46.0565 84.157 46.0565C83.789 46.0565 83.5201 46.1059 83.3502 46.2047C83.1804 46.3035 83.0955 46.4306 83.0955 46.5859C83.0955 46.7271 83.1556 46.8329 83.2759 46.9035C83.4033 46.9741 83.5696 47.0306 83.7749 47.0729C83.9801 47.1153 84.203 47.1541 84.4436 47.1894C84.6913 47.2176 84.939 47.2635 85.1867 47.3271C85.4344 47.3906 85.6573 47.4824 85.8555 47.6024C86.0607 47.7153 86.227 47.8741 86.3544 48.0788C86.4818 48.2765 86.5455 48.5376 86.5455 48.8624C86.5455 49.2153 86.4393 49.5294 86.227 49.8047C86.0147 50.0729 85.7069 50.2847 85.3035 50.44C84.9072 50.5953 84.4224 50.6729 83.8492 50.6729ZM89.2232 44.8918H87.5672V50.5882H89.2232V44.8918ZM87.6521 43.8329C87.8432 44.0094 88.0909 44.0977 88.3952 44.0977C88.7066 44.0977 88.9543 44.0094 89.1383 43.8329C89.3294 43.6494 89.4249 43.42 89.4249 43.1447C89.4249 42.8835 89.3294 42.6718 89.1383 42.5094C88.9472 42.34 88.6995 42.2553 88.3952 42.2553C88.0909 42.2553 87.8432 42.3435 87.6521 42.52C87.461 42.6965 87.3655 42.9153 87.3655 43.1765C87.3655 43.4376 87.461 43.6565 87.6521 43.8329ZM93.5201 50.6729C92.9044 50.6729 92.3559 50.5494 91.8747 50.3024C91.3935 50.0482 91.0149 49.6988 90.7389 49.2541C90.4699 48.8094 90.3355 48.3047 90.3355 47.74C90.3355 47.1682 90.4699 46.6635 90.7389 46.2259C91.0149 45.7812 91.3935 45.4353 91.8747 45.1882C92.3559 44.9341 92.9044 44.8071 93.5201 44.8071C94.1216 44.8071 94.6453 44.9341 95.0912 45.1882C95.537 45.4353 95.8661 45.7918 96.0784 46.2576L94.794 46.9459C94.6453 46.6776 94.4578 46.48 94.2313 46.3529C94.012 46.2259 93.7713 46.1624 93.5095 46.1624C93.2264 46.1624 92.9716 46.2259 92.7452 46.3529C92.5187 46.48 92.3383 46.66 92.2038 46.8929C92.0764 47.1259 92.0127 47.4082 92.0127 47.74C92.0127 48.0718 92.0764 48.3541 92.2038 48.5871C92.3383 48.82 92.5187 49 92.7452 49.1271C92.9716 49.2541 93.2264 49.3176 93.5095 49.3176C93.7713 49.3176 94.012 49.2576 94.2313 49.1376C94.4578 49.0106 94.6453 48.8094 94.794 48.5341L96.0784 49.2329C95.8661 49.6918 95.537 50.0482 95.0912 50.3024C94.6453 50.5494 94.1216 50.6729 93.5201 50.6729Z" fill="#180022"/>
</svg>
